HIERARCHY
ROOT hips
{
	OFFSET -0.003675 0.299928 -0.021708
	CHANNELS 6 Xposition Yposition Zposition Xrotation Yrotation Zrotation
	JOINT LowerBack
	{
		OFFSET 0.000919 0.177588 0.009275
		CHANNELS 3 Xrotation Yrotation Zrotation
		JOINT spine
		{
			OFFSET 0.000919 0.177588 0.009275
			CHANNELS 3 Xrotation Yrotation Zrotation
			JOINT chest
			{
				OFFSET 0.000456 0.100015 0.004638
				CHANNELS 3 Xrotation Yrotation Zrotation
				JOINT neck
				{
					OFFSET 0.000456 0.100015 0.004638
					CHANNELS 3 Xrotation Yrotation Zrotation
					JOINT head
					{
						OFFSET 0.000924 0.155147 0.009274
						CHANNELS 6 Xposition Yposition Zposition Xrotation Yrotation Zrotation
						End Site
						{
							OFFSET 0.000000 0.153400 0.000000
						}
					}
				}
				JOINT shoulder.L
				{
					OFFSET 0.019937 0.078966 0.057518
					CHANNELS 6 Xposition Yposition Zposition Yrotation Xrotation Zrotation
					JOINT upper_arm.L
					{
						OFFSET 0.177024 -0.020465 -0.095062
						CHANNELS 6 Xposition Yposition Zposition Xrotation Yrotation Zrotation
						JOINT forearm.L
						{
							OFFSET 0.247100 -0.135500 -0.061800
							CHANNELS 3 Xrotation Yrotation Zrotation
							JOINT hand.L
							{
								OFFSET 0.217000 -0.143000 0.039300
								CHANNELS 3 Xrotation Yrotation Zrotation
								JOINT palm.01.L
								{
									OFFSET 0.021770 -0.038291 0.012954
									CHANNELS 6 Xposition Yposition Zposition Yrotation Xrotation Zrotation
									JOINT f_index.01.L
									{
										OFFSET 0.053215 -0.044137 0.008236
										CHANNELS 3 Xrotation Yrotation Zrotation
										JOINT f_index.02.L
										{
											OFFSET 0.036108 -0.024723 -0.010656
											CHANNELS 3 Xrotation Yrotation Zrotation
											JOINT f_index.03.L
											{
												OFFSET 0.021342 -0.014948 -0.010846
												CHANNELS 3 Xrotation Yrotation Zrotation
												End Site
												{
													OFFSET 0.015600 -0.009860 -0.013421
												}
											}
										}
									}
									JOINT thumb.01.L
									{
										OFFSET -0.009090 -0.002348 -0.024223
										CHANNELS 6 Xposition Yposition Zposition Xrotation Yrotation Zrotation
										JOINT thumb.02.L
										{
											OFFSET 0.019713 -0.035076 -0.011120
											CHANNELS 3 Xrotation Yrotation Zrotation
											JOINT thumb.03.L
											{
												OFFSET 0.024877 -0.021748 -0.005176
												CHANNELS 3 Xrotation Yrotation Zrotation
												End Site
												{
													OFFSET 0.016125 -0.013029 -0.001569
												}
											}
										}
									}
								}
								JOINT palm.02.L
								{
									OFFSET 0.032823 -0.025104 0.012281
									CHANNELS 6 Xposition Yposition Zposition Yrotation Xrotation Zrotation
									JOINT f_middle.01.L
									{
										OFFSET 0.055723 -0.038469 0.008037
										CHANNELS 3 Xrotation Yrotation Zrotation
										JOINT f_middle.02.L
										{
											OFFSET 0.038167 -0.027473 -0.015582
											CHANNELS 3 Xrotation Yrotation Zrotation
											JOINT f_middle.03.L
											{
												OFFSET 0.021707 -0.016587 -0.017037
												CHANNELS 3 Xrotation Yrotation Zrotation
												End Site
												{
													OFFSET 0.014112 -0.010584 -0.014294
												}
											}
										}
									}
								}
								JOINT palm.03.L
								{
									OFFSET 0.039230 -0.011402 0.008390
									CHANNELS 6 Xposition Yposition Zposition Yrotation Xrotation Zrotation
									JOINT f_ring.01.L
									{
										OFFSET 0.061796 -0.031470 0.007910
										CHANNELS 3 Xrotation Yrotation Zrotation
										JOINT f_ring.02.L
										{
											OFFSET 0.033092 -0.023401 -0.019127
											CHANNELS 3 Xrotation Yrotation Zrotation
											JOINT f_ring.03.L
											{
												OFFSET 0.021392 -0.015362 -0.017824
												CHANNELS 3 Xrotation Yrotation Zrotation
												End Site
												{
													OFFSET 0.008670 -0.007297 -0.014686
												}
											}
										}
									}
								}
								JOINT palm.04.L
								{
									OFFSET 0.043417 0.002450 0.002889
									CHANNELS 6 Xposition Yposition Zposition Yrotation Xrotation Zrotation
									JOINT f_pinky.01.L
									{
										OFFSET 0.069986 -0.026156 0.003627
										CHANNELS 3 Xrotation Yrotation Zrotation
										JOINT f_pinky.02.L
										{
											OFFSET 0.018520 -0.012813 -0.016429
											CHANNELS 3 Xrotation Yrotation Zrotation
											JOINT f_pinky.03.L
											{
												OFFSET 0.013822 -0.009796 -0.014947
												CHANNELS 3 Xrotation Yrotation Zrotation
												End Site
												{
													OFFSET 0.007238 -0.006103 -0.011657
												}
											}
										}
									}
								}
							}
						}
					}
				}
				JOINT shoulder.R
				{
					OFFSET -0.016662 0.078957 0.057696
					CHANNELS 6 Xposition Yposition Zposition Yrotation Xrotation Zrotation
					JOINT upper_arm.R
					{
						OFFSET -0.176972 -0.020537 -0.095144
						CHANNELS 6 Xposition Yposition Zposition Xrotation Yrotation Zrotation
						JOINT forearm.R
						{
							OFFSET -0.247100 -0.135500 -0.061800
							CHANNELS 3 Xrotation Yrotation Zrotation
							JOINT hand.R
							{
								OFFSET -0.217000 -0.143000 0.039300
								CHANNELS 3 Xrotation Yrotation Zrotation
								JOINT palm.01.R
								{
									OFFSET -0.021773 -0.038278 0.012988
									CHANNELS 6 Xposition Yposition Zposition Yrotation Xrotation Zrotation
									JOINT f_index.01.R
									{
										OFFSET -0.053212 -0.044139 0.008249
										CHANNELS 3 Xrotation Yrotation Zrotation
										JOINT f_index.02.R
										{
											OFFSET -0.036049 -0.024835 -0.010634
											CHANNELS 3 Xrotation Yrotation Zrotation
											JOINT f_index.03.R
											{
												OFFSET -0.021371 -0.014881 -0.010866
												CHANNELS 3 Xrotation Yrotation Zrotation
												End Site
												{
													OFFSET -0.015584 -0.009883 -0.013422
												}
											}
										}
									}
									JOINT thumb.01.R
									{
										OFFSET 0.009113 -0.002381 -0.024211
										CHANNELS 6 Xposition Yposition Zposition Xrotation Yrotation Zrotation
										JOINT thumb.02.R
										{
											OFFSET -0.019694 -0.035097 -0.011088
											CHANNELS 3 Xrotation Yrotation Zrotation
											JOINT thumb.03.R
											{
												OFFSET -0.024867 -0.021762 -0.005168
												CHANNELS 3 Xrotation Yrotation Zrotation
												End Site
												{
													OFFSET -0.016120 -0.013036 -0.001565
												}
											}
										}
									}
								}
								JOINT palm.02.R
								{
									OFFSET -0.032828 -0.025095 0.012286
									CHANNELS 6 Xposition Yposition Zposition Yrotation Xrotation Zrotation
									JOINT f_middle.01.R
									{
										OFFSET -0.055721 -0.038472 0.008040
										CHANNELS 3 Xrotation Yrotation Zrotation
										JOINT f_middle.02.R
										{
											OFFSET -0.038101 -0.027593 -0.015557
											CHANNELS 3 Xrotation Yrotation Zrotation
											JOINT f_middle.03.R
											{
												OFFSET -0.021730 -0.016530 -0.017054
												CHANNELS 3 Xrotation Yrotation Zrotation
												End Site
												{
													OFFSET -0.014096 -0.010608 -0.014293
												}
											}
										}
									}
								}
								JOINT palm.03.R
								{
									OFFSET -0.039192 -0.011488 0.008390
									CHANNELS 6 Xposition Yposition Zposition Yrotation Xrotation Zrotation
									JOINT f_ring.01.R
									{
										OFFSET -0.061839 -0.031387 0.007876
										CHANNELS 3 Xrotation Yrotation Zrotation
										JOINT f_ring.02.R
										{
											OFFSET -0.033068 -0.023437 -0.019125
											CHANNELS 3 Xrotation Yrotation Zrotation
											JOINT f_ring.03.R
											{
												OFFSET -0.021371 -0.015393 -0.017822
												CHANNELS 3 Xrotation Yrotation Zrotation
												End Site
												{
													OFFSET -0.008654 -0.007321 -0.014684
												}
											}
										}
									}
								}
								JOINT palm.04.R
								{
									OFFSET -0.043421 0.002443 0.002845
									CHANNELS 6 Xposition Yposition Zposition Yrotation Xrotation Zrotation
									JOINT f_pinky.01.R
									{
										OFFSET -0.069983 -0.026169 0.003599
										CHANNELS 3 Xrotation Yrotation Zrotation
										JOINT f_pinky.02.R
										{
											OFFSET -0.018501 -0.012842 -0.016428
											CHANNELS 3 Xrotation Yrotation Zrotation
											JOINT f_pinky.03.R
											{
												OFFSET -0.013806 -0.009821 -0.014946
												CHANNELS 3 Xrotation Yrotation Zrotation
												End Site
												{
													OFFSET -0.007226 -0.006121 -0.011655
												}
											}
										}
									}
								}
							}
						}
					}
				}
			}
		}
	}
	JOINT pelvis.L
	{
		OFFSET 0.000000 0.000000 0.000000
		CHANNELS 6 Xposition Yposition Zposition Xrotation Yrotation Zrotation
		JOINT thigh.L
		{
			OFFSET 0.101675 0.001054 -0.000000
			CHANNELS 3 Xrotation Yrotation Zrotation
			JOINT shin.L
			{
				OFFSET 0.000000 -0.534800 0.041000
				CHANNELS 3 Xrotation Yrotation Zrotation
				JOINT foot.L
				{
					OFFSET 0.000000 -0.452000 -0.044800
					CHANNELS 3 Xrotation Yrotation Zrotation
					JOINT toe.L
					{
						OFFSET -0.000000 -0.068500 0.109600
						CHANNELS 3 Xrotation Yrotation Zrotation
						End Site
						{
							OFFSET -0.000000 0.000000 0.067200
						}
					}
				}
				JOINT heel.L
				{
					OFFSET 0.000000 -0.452000 -0.044800
					CHANNELS 3 Xrotation Yrotation Zrotation
					JOINT heel.02.L
					{
						OFFSET -0.038000 -0.085200 0.016200
						CHANNELS 6 Xposition Yposition Zposition Xrotation Yrotation Zrotation
						End Site
						{
							OFFSET 0.080000 -0.000000 0.000000
						}
					}
				}
			}
		}
	}
	JOINT pelvis.R
	{
		OFFSET 0.000000 0.000000 0.000000
		CHANNELS 6 Xposition Yposition Zposition Xrotation Yrotation Zrotation
		JOINT thigh.R
		{
			OFFSET -0.094325 0.001054 0.000000
			CHANNELS 3 Xrotation Yrotation Zrotation
			JOINT shin.R
			{
				OFFSET 0.000000 -0.534800 0.041000
				CHANNELS 3 Xrotation Yrotation Zrotation
				JOINT foot.R
				{
					OFFSET 0.000000 -0.452000 -0.044800
					CHANNELS 3 Xrotation Yrotation Zrotation
					JOINT toe.R
					{
						OFFSET -0.000000 -0.068500 0.109600
						CHANNELS 3 Xrotation Yrotation Zrotation
						End Site
						{
							OFFSET -0.000000 0.000000 0.067200
						}
					}
				}
				JOINT heel.R
				{
					OFFSET 0.000000 -0.452000 -0.044800
					CHANNELS 3 Xrotation Yrotation Zrotation
					JOINT heel.02.R
					{
						OFFSET 0.038000 -0.085200 0.016200
						CHANNELS 6 Xposition Yposition Zposition Xrotation Yrotation Zrotation
						End Site
						{
							OFFSET -0.080000 0.000000 -0.000000
						}
					}
				}
			}
		}
	}
}
MOTION
Frames: 4
Frame Time: 0.041667
-0.029387 0.222326 -0.035162 -32.765852 41.792555 67.532485 0.000000 0.000002 -0.000002 0.000000 -0.000001 0.000001 0.000005 -0.000000 -0.000001 -0.000001 0.000001 -0.000003 0.000924 0.155147 0.009274 -11.500780 0.016102 -26.051533 0.019937 0.078966 0.057518 23.665902 0.874997 18.313337 0.177024 -0.020465 -0.095062 -24.334226 9.343399 -49.561243 -40.014520 0.921702 -69.455046 -0.000001 -0.000001 -0.000000 0.021770 -0.038291 0.012954 0.000001 0.000000 -0.000002 -0.000002 -0.000000 0.000003 0.000002 0.000001 0.000007 -0.000002 0.000004 0.000002 -0.009090 -0.002348 -0.024223 0.000002 -0.000001 -0.000001 0.000000 0.000001 -0.000000 -0.000000 -0.000000 -0.000001 0.032823 -0.025104 0.012281 -0.000001 -0.000001 0.000002 -0.000001 0.000003 0.000000 -0.000002 -0.000003 0.000003 -0.000002 0.000004 0.000006 0.039230 -0.011402 0.008390 0.000001 -0.000001 0.000004 -0.000001 0.000002 0.000001 0.000001 0.000004 -0.000002 0.000001 -0.000004 0.000002 0.043417 0.002450 0.002889 0.000000 -0.000000 0.000002 0.000002 -0.000003 0.000001 0.000004 0.000001 0.000003 0.000001 -0.000003 0.000000 -0.016662 0.078957 0.057696 33.200050 -3.971546 -25.701000 -0.176972 -0.020537 -0.095144 -33.079412 -20.239350 69.655888 -19.167655 6.148056 63.157933 0.000006 -0.000001 -0.000001 -0.021773 -0.038278 0.012988 -0.000003 0.000006 -0.000003 -0.000006 0.000005 -0.000001 -0.000003 -0.000002 -0.000005 -0.000001 0.000005 0.000002 0.009114 -0.002381 -0.024211 -0.000000 0.000001 0.000001 -0.000002 0.000000 0.000004 -0.000002 -0.000001 -0.000003 -0.032828 -0.025095 0.012286 0.000001 0.000002 -0.000001 -0.000002 0.000001 0.000002 -0.000000 -0.000001 -0.000002 -0.000001 0.000001 -0.000006 -0.039192 -0.011488 0.008390 -0.000003 0.000006 0.000002 -0.000001 0.000002 -0.000003 -0.000000 -0.000003 -0.000002 0.000002 0.000002 -0.000003 -0.043421 0.002443 0.002844 -0.000004 0.000005 -0.000001 -0.000003 0.000000 -0.000001 -0.000002 -0.000003 0.000000 -0.000002 -0.000002 -0.000000 0.000000 0.000000 -0.000000 -2.448452 -1.411660 13.584568 -104.279811 -1.130362 -10.958569 126.468862 -1.452625 14.826341 -0.000002 -0.000000 0.000001 -0.000001 -0.000000 0.000000 0.000002 -0.000000 0.000000 -0.038000 -0.085200 0.016200 0.000003 0.000000 0.000000 0.000000 0.000000 -0.000000 -2.448616 -1.411704 14.818748 -87.434051 -1.113153 -19.727533 114.551657 -4.543056 53.293558 -0.000002 -0.000002 0.000002 0.000000 0.000000 0.000000 0.000002 -0.000001 0.000003 0.038000 -0.085200 0.016200 -0.000001 -0.000001 0.000002 
-0.028712 0.217578 -0.036739 -37.112608 42.046214 74.072869 -0.000004 -0.000002 -0.000000 -0.000001 -0.000003 -0.000004 -0.000002 0.000002 -0.000002 -0.000004 0.000001 -0.000000 0.000924 0.155148 0.009274 -13.141138 0.019539 -27.620196 0.019937 0.078966 0.057518 22.427922 0.399512 19.250058 0.177025 -0.020465 -0.095062 -23.770902 9.344435 -48.853860 -38.620123 2.213505 -72.622096 -0.000002 -0.000001 -0.000006 0.021770 -0.038291 0.012954 -0.000000 -0.000001 0.000001 -0.000002 -0.000002 0.000003 -0.000001 -0.000001 0.000007 0.000002 0.000002 -0.000003 -0.009090 -0.002348 -0.024223 -0.000001 -0.000002 0.000003 -0.000000 0.000001 0.000005 -0.000001 0.000002 0.000001 0.032823 -0.025104 0.012281 -0.000001 0.000000 0.000004 0.000001 0.000000 -0.000005 -0.000001 -0.000002 -0.000000 -0.000002 0.000000 0.000004 0.039230 -0.011402 0.008390 0.000000 -0.000000 0.000006 0.000000 -0.000001 0.000003 -0.000000 0.000006 0.000005 -0.000000 0.000002 -0.000000 0.043417 0.002450 0.002889 -0.000000 0.000001 -0.000000 0.000002 -0.000006 -0.000000 -0.000001 -0.000001 -0.000003 -0.000002 -0.000002 -0.000001 -0.016662 0.078957 0.057696 31.152896 -4.702649 -25.484541 -0.176972 -0.020537 -0.095144 -31.129721 -20.539304 71.772283 -6.662248 7.532414 59.633596 0.000001 0.000002 -0.000000 -0.021773 -0.038278 0.012988 0.000002 0.000000 -0.000003 -0.000000 0.000001 -0.000001 -0.000003 0.000001 -0.000001 0.000001 -0.000005 0.000004 0.009114 -0.002381 -0.024211 -0.000000 -0.000001 -0.000003 -0.000000 0.000000 0.000000 -0.000000 -0.000001 0.000003 -0.032828 -0.025095 0.012286 0.000003 -0.000000 -0.000001 0.000003 -0.000000 -0.000003 0.000003 0.000004 0.000000 -0.000003 0.000005 -0.000009 -0.039192 -0.011488 0.008390 0.000003 0.000002 -0.000002 0.000001 0.000003 0.000000 0.000003 -0.000001 0.000002 0.000002 -0.000003 -0.000000 -0.043421 0.002443 0.002845 0.000002 0.000000 -0.000001 -0.000002 0.000004 -0.000001 -0.000001 -0.000001 -0.000002 -0.000007 -0.000002 0.000002 -0.000000 0.000000 -0.000000 -2.541798 -1.297803 12.240926 -110.966498 -0.893570 -8.008102 128.191736 -1.133522 11.517698 -0.000003 -0.000001 0.000000 0.000002 0.000001 0.000001 -0.000002 -0.000002 0.000000 -0.038000 -0.085200 0.016200 0.000001 0.000000 -0.000002 -0.000000 0.000000 -0.000000 -2.536880 -1.296684 13.475214 -93.766182 -1.469533 -24.707945 119.340111 -4.074103 45.944760 0.000002 -0.000001 0.000002 0.000003 -0.000002 -0.000003 0.000007 -0.000003 0.000003 0.038000 -0.085200 0.016200 0.000005 0.000000 -0.000002 
-0.027605 0.214669 -0.035989 -41.824711 40.732868 79.600712 -0.000002 -0.000000 0.000000 0.000001 -0.000000 0.000002 -0.000000 0.000002 -0.000001 -0.000003 0.000001 -0.000001 0.000924 0.155148 0.009274 -11.319865 0.015964 -26.108565 0.019937 0.078966 0.057518 19.071953 -0.458565 20.128781 0.177024 -0.020465 -0.095062 -23.093194 9.633161 -48.741326 -39.534118 5.803285 -78.077559 -0.000000 -0.000003 -0.000002 0.021770 -0.038291 0.012954 0.000001 0.000001 0.000001 -0.000001 -0.000003 -0.000000 0.000002 -0.000000 0.000003 0.000001 0.000004 -0.000000 -0.009090 -0.002348 -0.024224 0.000001 -0.000003 0.000001 -0.000001 -0.000001 0.000003 -0.000000 0.000001 -0.000004 0.032823 -0.025104 0.012281 -0.000002 0.000000 0.000004 -0.000000 0.000001 0.000000 -0.000003 0.000000 0.000001 -0.000005 -0.000002 -0.000000 0.039230 -0.011402 0.008390 -0.000000 0.000000 0.000003 -0.000001 0.000000 0.000003 0.000001 0.000006 0.000001 0.000001 0.000004 0.000002 0.043417 0.002450 0.002889 0.000000 0.000001 -0.000000 -0.000000 -0.000007 -0.000003 -0.000000 -0.000004 -0.000003 0.000002 0.000002 0.000002 -0.016662 0.078957 0.057696 27.598001 -4.656036 -26.122181 -0.176972 -0.020537 -0.095144 -27.549780 -20.456319 75.668367 -4.555373 7.655914 60.072388 -0.000001 0.000001 0.000000 -0.021773 -0.038278 0.012988 -0.000003 0.000001 -0.000003 -0.000002 0.000000 0.000002 0.000001 -0.000000 -0.000001 0.000001 0.000000 0.000001 0.009113 -0.002381 -0.024212 0.000003 -0.000004 0.000004 -0.000000 -0.000001 0.000000 -0.000004 0.000001 -0.000004 -0.032828 -0.025095 0.012286 -0.000002 0.000000 0.000001 0.000000 0.000002 -0.000001 -0.000000 0.000001 -0.000002 -0.000001 0.000004 -0.000000 -0.039192 -0.011488 0.008390 -0.000001 0.000004 0.000001 -0.000003 0.000001 0.000000 0.000003 -0.000001 0.000002 -0.000004 -0.000002 -0.000005 -0.043421 0.002443 0.002845 -0.000001 0.000002 0.000000 -0.000009 0.000004 -0.000004 -0.000000 -0.000004 -0.000003 0.000001 0.000001 0.000002 -0.000000 0.000000 0.000000 -2.545340 -1.450269 13.719046 -111.189995 -1.058637 -10.180902 131.044515 -1.277679 13.006922 -0.000002 0.000001 -0.000001 -0.000003 0.000000 -0.000002 0.000002 0.000001 -0.000002 -0.038000 -0.085200 0.016200 0.000002 0.000000 0.000000 -0.000000 0.000000 0.000000 -2.546159 -1.450474 14.953203 -94.750508 -1.296255 -22.243483 116.161833 -3.947380 44.126314 -0.000002 0.000002 -0.000001 0.000000 0.000000 -0.000001 0.000002 0.000000 -0.000001 0.038000 -0.085200 0.016200 0.000001 -0.000000 -0.000001 
-0.027015 0.212933 -0.034124 -44.834171 39.408149 82.819500 0.000002 -0.000002 0.000005 0.000001 -0.000001 0.000000 -0.000002 -0.000001 0.000000 -0.000003 -0.000001 0.000001 0.000924 0.155148 0.009274 -9.720004 0.013868 -24.298067 0.019937 0.078966 0.057518 17.607635 -0.900996 20.084212 0.177024 -0.020465 -0.095062 -24.045766 10.459439 -51.399632 -38.422553 5.166125 -78.277608 -0.000003 -0.000003 0.000000 0.021770 -0.038291 0.012954 0.000001 0.000002 0.000005 -0.000002 -0.000001 -0.000002 -0.000001 -0.000005 0.000013 0.000002 0.000001 0.000000 -0.009090 -0.002348 -0.024224 -0.000001 -0.000003 -0.000005 0.000000 0.000001 0.000003 0.000000 -0.000000 0.000001 0.032823 -0.025104 0.012281 0.000000 0.000001 0.000007 -0.000001 0.000000 -0.000002 -0.000005 -0.000002 0.000001 -0.000002 0.000001 0.000003 0.039230 -0.011402 0.008390 0.000002 -0.000001 0.000011 0.000003 0.000000 -0.000002 0.000000 -0.000002 0.000005 -0.000000 -0.000000 -0.000000 0.043417 0.002450 0.002889 -0.000001 0.000001 0.000003 -0.000001 -0.000003 0.000001 0.000002 0.000004 -0.000002 0.000001 0.000003 -0.000002 -0.016662 0.078957 0.057696 26.700944 -4.642245 -26.148461 -0.176972 -0.020537 -0.095144 -25.340412 -19.294345 74.871646 -9.920998 7.590757 66.295483 -0.000004 0.000004 0.000003 -0.021773 -0.038278 0.012988 0.000000 -0.000001 -0.000003 -0.000001 0.000001 0.000001 -0.000001 -0.000000 -0.000001 -0.000000 0.000001 -0.000002 0.009113 -0.002381 -0.024212 0.000000 0.000000 0.000003 0.000001 -0.000003 -0.000005 -0.000000 0.000002 -0.000006 -0.032828 -0.025095 0.012286 0.000001 -0.000001 -0.000001 -0.000000 0.000002 0.000001 0.000001 -0.000004 -0.000002 -0.000005 0.000000 -0.000000 -0.039192 -0.011488 0.008390 0.000003 -0.000002 -0.000002 -0.000003 0.000004 -0.000005 0.000002 -0.000001 0.000003 0.000001 0.000004 -0.000002 -0.043421 0.002443 0.002844 0.000001 -0.000003 -0.000002 -0.000000 0.000003 -0.000004 -0.000002 -0.000004 -0.000002 -0.000001 -0.000001 -0.000001 0.000000 0.000000 -0.000000 -2.538599 -1.463741 13.866574 -108.115221 -1.117711 -10.853228 130.571415 -1.346004 13.715725 0.000002 0.000001 -0.000001 -0.000003 0.000002 0.000000 0.000002 0.000001 0.000002 -0.038000 -0.085200 0.016200 -0.000001 0.000001 -0.000002 0.000000 0.000000 0.000000 -2.539974 -1.464100 15.100722 -97.332388 -0.856804 -16.142314 111.596296 -3.940335 44.026658 0.000003 0.000003 -0.000000 -0.000001 0.000002 0.000002 0.000010 0.000001 0.000002 0.038000 -0.085200 0.016200 0.000001 0.000000 -0.000001 
